<svg
    xmlns="http://www.w3.org/2000/svg"
    viewBox="0 0 488 488"
    id="vector">
    <path
        id="path"
        d="M 448.9 125.7 C 448.9 125.6 448.8 125.4 448.8 125.3 C 448.8 125.1 448.7 125 448.7 124.8 C 448.7 124.7 448.6 124.5 448.6 124.4 C 448.5 124.2 448.5 124.1 448.4 123.9 C 448.4 123.8 448.3 123.6 448.3 123.5 C 448.2 123.2 448.1 123 447.9 122.7 C 447.8 122.6 447.8 122.5 447.7 122.4 C 447.6 122.2 447.5 122.1 447.4 121.9 C 447.3 121.8 447.3 121.7 447.2 121.6 C 447.1 121.5 447.1 121.4 447 121.3 L 357 3.9 L 356.9 3.8 C 356.7 3.6 356.6 3.4 356.4 3.2 C 356.3 3.1 356.3 3 356.2 3 C 356 2.7 355.7 2.5 355.4 2.3 C 355.4 2.3 355.4 2.3 355.3 2.2 C 355 2 354.8 1.8 354.5 1.6 C 354.4 1.5 354.3 1.5 354.2 1.4 C 354 1.3 353.8 1.1 353.5 1 C 353.4 1 353.3 0.9 353.2 0.9 C 353 0.8 352.7 0.7 352.5 0.6 C 352.4 0.6 352.3 0.5 352.2 0.5 C 352 0.4 351.7 0.3 351.5 0.3 C 351.4 0.3 351.3 0.2 351.2 0.2 C 350.9 0.1 350.7 0.1 350.4 0.1 C 350.3 0.1 350.2 0.1 350.1 0.1 C 349.7 0.1 349.4 0 349 0 L 49 0 C 43.5 0 39 4.5 39 10 L 39 478 C 39 483.5 43.5 488 49 488 L 439 488 C 444.5 488 449 483.5 449 478 L 449 127.4 C 449 127.2 449 126.9 449 126.6 L 449 126.6 C 449 126.5 449 126.4 449 126.3 C 449 126.1 448.9 125.9 448.9 125.7 Z M 418.7 117.5 L 359.2 117.5 L 359 39.7 L 418.7 117.5 Z M 429 468.1 L 59 468.1 L 59 20.1 L 339 20.1 L 339.2 127.5 C 339.2 133 343.7 137.5 349.2 137.5 L 429 137.5 L 429 468.1 Z"
        fill="#000000"/>
    <path
        id="path_1"
        d="M 101.3 183.1 C 101.3 188.6 105.8 193.1 111.3 193.1 L 377.5 193.1 C 383 193.1 387.5 188.6 387.5 183.1 C 387.5 177.6 383 173.1 377.5 173.1 L 111.3 173.1 C 105.8 173.1 101.3 177.6 101.3 183.1 Z"
        fill="#000000"/>
    <path
        id="path_2"
        d="M 111.3 132.1 L 285.2 132.1 L 285.2 132.1 C 290.7 132.1 295.1 127.6 295.1 122.1 C 295.1 116.6 290.6 112.1 285.1 112.1 L 111.3 112.1 C 105.8 112.1 101.3 116.6 101.3 122.1 C 101.3 127.6 105.8 132.1 111.3 132.1 Z"
        fill="#000000"/>
    <path
        id="path_3"
        d="M 111.3 254.1 L 377.5 254.1 C 383 254.1 387.5 249.6 387.5 244.1 C 387.5 238.6 383 234.1 377.5 234.1 L 111.3 234.1 C 105.8 234.1 101.3 238.6 101.3 244.1 C 101.3 249.6 105.8 254.1 111.3 254.1 Z"
        fill="#000000"/>
    <path
        id="path_4"
        d="M 285.2 315.1 C 290.7 315.1 295.1 310.6 295.1 305.1 C 295.1 299.6 290.6 295.1 285.1 295.1 L 111.3 295.1 C 105.8 295.1 101.3 299.6 101.3 305.1 C 101.3 310.6 105.8 315.1 111.3 315.1 L 285.2 315.1 L 285.2 315.1 Z"
        fill="#000000"/>
    <path
        id="path_5"
        d="M 370.9 327.9 L 286.7 402.3 L 262.4 369.8 C 259.1 365.4 252.8 364.5 248.4 367.8 C 244 371.1 243.1 377.4 246.4 381.8 L 277.2 423 C 278.9 425.3 281.4 426.7 284.2 427 C 284.5 427.1 284.9 427.1 285.2 427.1 L 285.2 427.1 C 287.6 427.1 289.9 426.2 291.8 424.5 L 384.1 342.9 C 388.3 339.3 388.7 332.9 385 328.8 C 381.4 324.6 375 324.2 370.9 327.9 Z"
        fill="#000000"/>
</svg>
